<svg width="200" height="250" version="1.1" xmlns="http://www.w3.org/2000/svg">

  <rect x="10" y="10" width="30" height="30" stroke="black" fill="transparent" stroke-width="5"/>
  <rect x="60" y="10" rx="10" ry="10" width="30" height="30" stroke="black" fill="transparent" stroke-width="5"/>

  <polyline points="60 110 65 120 70 115 75 130 80 125 85 140 90 135 95 150 100 145"
      stroke="orange" fill="transparent" stroke-width="5"/>

  <polygon points="50 160 55 180 70 180 60 190 65 205 50 195 35 205 40 190 30 180 45 180"
      stroke="green" fill="transparent" stroke-width="6">
      <animate attributeName="stroke-width" values="6;0;6" dur="2s" repeatCount="indefinite" />  
  </polygon>

  <path d="M20,230 Q40,205 50,230 T90,230" fill="none" stroke="blue" stroke-width="5"/>

  <rect x="80" y="50" width="80" height="120" fill="olive" stroke="brown">
    <animate attributeName="rx" values="0;50;0" dur="2s" repeatCount="indefinite"
        begin="mouseover" end="mouseout"/>
    <animate attributeName="fill" values="red;blue;red" dur="2s" repeatCount="1"
        begin="mouseover" end="mouseout" />
  </rect>

</svg>
